# xmcd
#
# Track frame offsets: 
#        150
#        14666
#        29090
#        45159
#        57868
#        72557
#        85187
#        99178
#        112641
#        127932
#        139924
#        158408
#        175137
#        185609
#        204194
#        219938
#        248249
#        274532
#        288255
#        312713
#        327789
#
# Disc length: 4568 seconds
#
# Revision: 5
# Processed by: cddbd v1.5.2PL0 Copyright (c) Steve Scherf et al.
# Submitted via: ExactAudioCopy v1.1
#
DISCID=1e11d615
DTITLE=Johnnie Taylor - Lifetime: A Retrospective Of Soul, Blues and Gos
DTITLE=pel (1956-1999) D2
DYEAR=2000
DGENRE=Soul
TTITLE0=Little Bluebird (stereo)
TTITLE1=Toe Hold (stereo)
TTITLE2=That's Where It's At (stereo)
TTITLE3=I Ain't Particular (stereo)
TTITLE4=Woman Across The River (stereo)
TTITLE5=Who's Making Love (stereo)
TTITLE6=I'm Not The Same Person (stereo)
TTITLE7=I'd Rather Drink Muddy Water (stereo)
TTITLE8=Mr. Nobody Is Somebody Now (stereo)
TTITLE9=Take Care Of Your Homework (stereo)
TTITLE10=Testify (I Wonna) (stereo)
TTITLE11=Separation Line (stereo)
TTITLE12=I Could Never Be President (stereo)
TTITLE13=Love Bones (stereo)
TTITLE14=Steal Away (stereo)
TTITLE15=Steal Away (live) (stereo)
TTITLE16=I Am Somebody (Parts 1 and 2) (stereo)
TTITLE17=Jody's Got Your Girl And Gone (stereo)
TTITLE18=I Don't Wanna Lose You (Parts 1 and 2) (stereo)
TTITLE19=Don't Take My Sunshine (stereo)
TTITLE20=Hijackin' Love (mono)
EXTD=
EXTT0=
EXTT1=
EXTT2=
EXTT3=
EXTT4=
EXTT5=
EXTT6=
EXTT7=
EXTT8=
EXTT9=
EXTT10=
EXTT11=
EXTT12=
EXTT13=
EXTT14=
EXTT15=
EXTT16=
EXTT17=
EXTT18=
EXTT19=
EXTT20=
PLAYORDER=
